<svg width="6" height="7" viewBox="0 0 6 7" fill="none" xmlns="http://www.w3.org/2000/svg">
<path fill-rule="evenodd" clip-rule="evenodd" d="M0.805491 4.93568C1.53599 6.25328 2.76449 6.62192 3.95249 6.01568C5.13899 5.41088 5.50949 4.22576 4.77899 2.90816C3.94499 1.39904 2.15699 0.0310425 0.971991 0.634403C-0.21301 1.2392 -0.0300092 3.42656 0.806991 4.93568H0.805491ZM2.12999 4.25888C1.86439 3.74687 1.70155 3.19144 1.64999 2.6216C1.62767 2.38338 1.63674 2.14341 1.67699 1.90736L1.70399 1.92032C1.77899 1.95488 2.01149 2.05856 2.30849 2.28608C2.76149 2.63312 3.21149 3.14432 3.45449 3.58352C3.79799 4.20272 3.70049 4.51376 3.24749 4.7456C2.79749 4.976 2.47349 4.87808 2.12999 4.26032V4.25888Z" fill="#222A36"/>
</svg>
